<?xml version="1.0" encoding="UTF-8"?>
<!DOCTYPE svg PUBLIC "-//W3C//DTD SVG 1.1//EN" "http://www.w3.org/Graphics/SVG/1.1/DTD/svg11.dtd">
<!-- Creator: CorelDRAW 2020 (64-Bit) -->
<svg xmlns="http://www.w3.org/2000/svg" xml:space="preserve" width="105.107mm" height="64.3474mm" version="1.1" style="shape-rendering:geometricPrecision; text-rendering:geometricPrecision; image-rendering:optimizeQuality; fill-rule:evenodd; clip-rule:evenodd"
viewBox="0 0 10510.68 6434.74"
 xmlns:xlink="http://www.w3.org/1999/xlink"
 xmlns:xodm="http://www.corel.com/coreldraw/odm/2003">
 <defs>
  <style type="text/css">
   <![CDATA[
    .fil2 {fill:#0A0A0A;fill-rule:nonzero}
    .fil1 {fill:#4F4E4A;fill-rule:nonzero}
    .fil3 {fill:#D83A2A;fill-rule:nonzero}
    .fil0 {fill:#F2EDE1;fill-rule:nonzero}
   ]]>
  </style>
 </defs>
 <g id="Layer_x0020_1">
  <metadata id="CorelCorpID_0Corel-Layer"/>
  <polygon class="fil0" points="-2.46,6434.74 10508.22,6434.74 10508.22,-0.02 -2.46,-0.02 "/>
  <path class="fil1" d="M1981.89 4342.19l0 42.25 63.49 60.05 -63.49 0 0 33.03 152.71 0 0 -33.03 -49.33 0 -19.3 -19.52 68.63 -46.32 0 -42.04 -92.44 65.41 -60.27 -59.83zm0 -234.21l0 37.75 105.74 57.48 0 0.64 -105.74 0 0 33.46 152.71 0 0 -37.75 -105.95 -57.48 0 -0.64 105.95 0 0 -33.46 -152.71 0zm0 -244.72l0 33.46 57.48 0 0 62.41 -57.48 0 0 33.46 152.71 0 0 -33.46 -65.85 0 0 -62.41 65.85 0 0 -33.46 -152.71 0zm-3.65 -184.46c0,22.88 7.33,41.21 21.99,55.01 14.65,13.8 34.06,20.7 58.23,20.7 23.88,0 43.15,-6.94 57.8,-20.8 14.66,-13.87 21.99,-32.11 21.99,-54.7 0,-22.45 -7.33,-40.57 -21.99,-54.37 -14.65,-13.8 -33.92,-20.7 -57.8,-20.7 -23.88,0 -43.22,6.9 -58.02,20.7 -14.8,13.8 -22.2,31.85 -22.2,54.16zm27.46 0.43c0,-12.73 4.68,-22.81 14.05,-30.24 9.36,-7.44 22.05,-11.16 38.07,-11.16 16.3,0 29.17,3.65 38.6,10.94 9.44,7.29 14.16,17.3 14.16,30.03 -0.14,13.01 -4.86,23.23 -14.16,30.67 -9.29,7.43 -22.16,11.15 -38.6,11.15 -15.88,0 -28.53,-3.75 -37.97,-11.26 -9.43,-7.51 -14.15,-17.55 -14.15,-30.13zm50.83 -342.96c-18.16,0 -32.46,5.97 -42.9,17.91 -10.43,11.94 -16.01,28.06 -16.73,48.37l-15.01 0 0 33.03 15.01 0c0.72,20.3 6.3,36.42 16.73,48.36 10.44,11.94 24.74,17.91 42.9,17.91 18.73,0 33.46,-6.01 44.18,-18.02 10.73,-12.01 16.45,-28.09 17.16,-48.25l16.73 0 0 -33.03 -16.73 0c-0.71,-20.17 -6.43,-36.25 -17.16,-48.26 -10.72,-12.01 -25.45,-18.02 -44.18,-18.02zm0 32.17c10.44,0 18.98,3.04 25.63,9.12 6.65,6.08 10.19,14.4 10.62,24.99l-71.64 0c0.43,-11.01 3.72,-19.45 9.87,-25.31 6.14,-5.87 14.65,-8.8 25.52,-8.8zm36.25 67.14c-0.43,10.58 -3.97,18.87 -10.62,24.88 -6.65,6 -15.19,9 -25.63,9 -10.87,0 -19.38,-2.89 -25.52,-8.68 -6.15,-5.79 -9.44,-14.19 -9.87,-25.2l71.64 0zm-110.89 -322.58l0 114.53 152.71 0 0 -116.03 -28.1 0 0 82.79 -37.53 0 0 -74.64 -26.38 0 0 74.64 -33.25 0 0 -81.29 -27.45 0zm93.73 -246.65l0 33.25c22.88,2.86 34.31,14.51 34.31,34.96 0,12.29 -4.68,22.09 -14.04,29.38 -9.37,7.29 -21.92,10.94 -37.64,10.94 -9.01,0 -17.31,-1.29 -24.88,-3.86 -7.58,-2.58 -13.98,-7.04 -19.2,-13.41 -5.22,-6.36 -7.83,-14.19 -7.83,-23.48 0,-9.01 2.32,-16.48 6.97,-22.42 4.65,-5.93 11.19,-9.75 19.63,-11.47l0 -32.82c-15.88,1.29 -28.96,8.08 -39.25,20.38 -10.3,12.3 -15.45,27.52 -15.45,45.68 0,22.74 7.58,40.93 22.74,54.59 15.16,13.65 34.17,20.48 57.05,20.48 24.17,0 43.58,-6.75 58.23,-20.27 14.66,-13.51 21.99,-31.35 21.99,-53.51 0,-20.45 -5.65,-36.53 -16.95,-48.26 -11.29,-11.72 -26.52,-18.44 -45.68,-20.16zm-93.73 -217.91l0 125.47 28.53 0 0 -45.9 124.18 0 0 -33.67 -124.18 0 0 -45.9 -28.53 0zm0 -232.72l0 37.75 105.74 57.48 0 0.64 -105.74 0 0 33.46 152.71 0 0 -37.75 -105.95 -57.48 0 -0.64 105.95 0 0 -33.46 -152.71 0zm0 -115.17l152.71 0 0 -76.36c0,-15.01 -3.97,-27.38 -11.9,-37.1 -7.94,-9.73 -19.13,-14.59 -33.57,-14.59 -19.59,0 -32.03,9.29 -37.32,27.88 -2.86,-6.43 -7.04,-11.51 -12.55,-15.22 -5.5,-3.72 -11.83,-5.58 -18.98,-5.58 -12.87,0 -22.48,4.54 -28.85,13.62 -6.36,9.08 -9.54,20.77 -9.54,35.07l0 72.28zm25.95 -32.61l0 -30.45c0,-7.72 1.25,-13.87 3.76,-18.45 2.5,-4.57 7.25,-6.86 14.26,-6.86 11.87,0 17.8,8.44 17.8,25.31l0 30.45 -35.82 0zm58.56 0l0 -31.95c0,-9.3 1.39,-16.63 4.18,-21.99 2.79,-5.36 8.33,-8.04 16.62,-8.04 8.15,0 13.66,2.54 16.51,7.61 2.86,5.08 4.29,11.98 4.29,20.7l0 33.67 -41.6 0zm-84.72 -280.32l0 34.54 152.92 58.12 0 -34.32 -34.1 -12.44 0 -56.83 34.1 -12.01 0 -35.18 -152.92 58.12zm94.37 -2.78l0 40.53 -56.84 -20.37 56.84 -20.16zm-94.16 -279.9l0 106.38 92.87 2.58c14.3,0.43 23.84,2.07 28.63,4.93 4.79,2.86 7.19,6.93 7.19,12.23 0,4.43 -0.86,8.36 -2.58,11.79l27.03 0c1.71,-5.15 2.57,-11.44 2.57,-18.87 0,-26.88 -20.8,-41.04 -62.41,-42.47l-64.77 -2.14 0 -40.97 124.18 0 0 -33.46 -152.71 0zm103.59 -237.85c-16.01,0 -28.13,5 -36.35,15.01 -8.22,10.01 -12.33,23.1 -12.33,39.25l0 36.04 -54.91 0 0 33.24 152.71 0 0 -67.56c0,-17.16 -4.11,-30.78 -12.33,-40.86 -8.22,-10.08 -20.49,-15.12 -36.79,-15.12zm-0.42 32.6c14.72,0 22.09,8.65 22.09,25.95l0 31.75 -43.97 0 0 -31.53c0,-17.45 7.29,-26.17 21.88,-26.17z"/>
  <path class="fil2" d="M2613.56 1671.86l951.31 0 0 201.02 -342.59 0 0 830.98 -266.14 0 0 -830.98 -342.58 0 0 -201.02zm1517.56 174.12c-81.16,0 -144.16,29.97 -188.99,89.9 -44.59,59.92 -67,144.15 -67,252.92 0,108.54 22.41,192.53 67,252.46 44.83,59.93 107.83,89.89 188.99,89.89 81.4,0 144.63,-29.96 189.46,-89.89 44.59,-59.93 67.01,-143.92 67.01,-252.46 0,-108.77 -22.42,-193 -67.01,-252.92 -44.83,-59.93 -108.06,-89.9 -189.46,-89.9zm0.24 -192.52c165.86,0 295.87,47.42 389.77,142.27 94.14,94.84 141.09,226.03 141.09,393.07 0,166.81 -46.95,297.76 -141.09,392.61 -93.9,94.85 -223.91,142.27 -389.77,142.27 -165.4,0 -295.16,-47.42 -389.54,-142.27 -94.14,-94.85 -141.33,-225.8 -141.33,-392.61 0,-167.04 47.19,-298.23 141.33,-393.07 94.38,-94.85 224.14,-142.27 389.54,-142.27zm1804.23 18.4l717.73 0 0 201.02 -451.59 0 0 192.53 424.69 0 0 201.02 -424.69 0 0 236.41 467.16 0 0 201.02 -733.3 0 0 -1032zm924.65 0l266.14 0 0 393.55 392.13 0 0 -393.55 266.14 0 0 1032 -266.14 0 0 -437.43 -392.13 0 0 437.43 -266.14 0 0 -1032zm-2039.23 0l266.14 0 0 425.87 416.2 -425.87 301.53 0 -410.07 418.08 432.72 613.92 -293.04 0 -310.5 -439.56 -136.84 139.68 0 299.88 -266.14 0 0 -1032z"/>
  <polygon class="fil3" points="8121.12,1974.69 8421.4,1974.69 8421.4,1674.4 8121.12,1674.4 "/>
  <polygon class="fil3" points="8121.12,2703.96 8421.4,2703.96 8421.4,2403.67 8121.12,2403.67 "/>
  <path class="fil2" d="M2951.9 3678.92c0,69.36 17.93,119.38 53.55,150.29 35.87,30.91 92.49,49.78 170.12,56.16l0 -413.37c-77.63,6.37 -134.25,25.24 -170.12,56.39 -35.62,31.14 -53.55,81.4 -53.55,150.53zm713.48 0c0,-69.13 -17.93,-119.39 -53.56,-150.53 -35.86,-31.15 -92.49,-50.02 -170.11,-56.39l0 413.37c77.62,-6.38 134.25,-25.25 170.11,-56.16 35.63,-30.91 53.56,-80.93 53.56,-150.29zm-489.81 -505.62l266.14 0 0 101.92c169.4,13.92 294.69,52.38 376.09,115.38 81.4,63.23 122.21,159.26 122.21,288.32 0,129.06 -40.81,225.08 -122.21,288.08 -81.4,63 -206.69,101.22 -376.09,115.14l0 123.16 -266.14 0 0 -123.16c-169.17,-13.92 -294.46,-52.14 -376.09,-115.14 -81.4,-63 -122.22,-159.02 -122.22,-288.08 0,-129.06 40.82,-225.09 122.22,-288.32 81.63,-63 206.92,-101.46 376.09,-115.38l0 -101.92zm1846.93 0l0 1032 -251.98 0 0 -707.82 -375.38 707.82 -297.05 0 0 -1032 251.98 0 0 707.82 375.62 -707.82 296.81 0zm1773.32 850.8c55.68,0 96.03,-10.38 120.8,-31.15 26.66,-22.41 40.11,-55.21 40.11,-97.91 0,-42 -13.45,-74.09 -40.11,-96.03 -24.3,-20.76 -64.64,-31.14 -120.8,-31.14l-156.19 0 0 256.23 156.19 0zm427.05 -137.32c0,109.71 -33.74,188.75 -100.98,237.59 -74.08,54.03 -176.48,80.93 -306.72,80.93l-441.68 0 0 -1032 266.14 0 0 393.55 175.54 0c130.24,0 232.64,26.89 306.72,80.92 67.24,48.84 100.98,128.36 100.98,239.01zm187.1 -713.48l338.34 0 234.99 552.33 236.41 -552.33 338.34 0 0 1032 -251.98 0 0 -754.77 -237.83 556.58 -168.46 0 -237.83 -556.58 0 754.77 -251.98 0 0 -1032zm-2234.82 1032l0 -201.02c117.26,-12.98 187.57,-57.57 210.93,-133.78 23.59,-76.21 35.39,-243.72 35.39,-502.32l0 -194.88 734.72 0 0 1032 -266.14 0 0 -830.98 -202.44 0 0 63c0,252.45 -22.41,437.19 -67.01,553.98 -44.82,116.79 -193.23,188.28 -445.45,214z"/>
  <path class="fil1" d="M2750.6 4824.77l-37.74 0 -57.48 105.73 -0.64 0 0 -105.73 -33.46 0 0 152.7 37.75 0 57.47 -105.95 0.65 0 0 105.95 33.45 0 0 -152.7zm251.79 93.72l-33.24 0c-2.86,22.88 -14.51,34.32 -34.96,34.32 -12.3,0 -22.09,-4.69 -29.38,-14.05 -7.29,-9.37 -10.94,-21.91 -10.94,-37.64 0,-9.01 1.29,-17.3 3.86,-24.88 2.57,-7.58 7.04,-13.98 13.4,-19.19 6.37,-5.22 14.2,-7.83 23.49,-7.83 9.01,0 16.48,2.32 22.41,6.97 5.93,4.64 9.76,11.19 11.48,19.62l32.81 0c-1.29,-15.87 -8.08,-28.95 -20.38,-39.25 -12.29,-10.29 -27.52,-15.44 -45.68,-15.44 -22.73,0 -40.93,7.58 -54.58,22.74 -13.65,15.15 -20.48,34.17 -20.48,57.04 0,24.17 6.75,43.58 20.27,58.23 13.51,14.66 31.34,21.99 53.51,21.99 20.44,0 36.53,-5.65 48.25,-16.95 11.73,-11.29 18.45,-26.52 20.16,-45.68zm244.07 -93.72l-42.25 0 -60.05 63.48 0 -63.48 -33.03 0 0 152.7 33.03 0 0 -49.33 19.51 -19.3 46.33 68.63 42.03 0 -65.41 -92.44 59.84 -60.26zm111.95 152.06c5.72,2.28 11.93,3.43 18.65,3.43 12.02,0 21.67,-3.18 28.96,-9.55 7.29,-6.36 14.58,-17.55 21.87,-33.56l51.48 -112.38 -35.82 0 -33.89 80.42 -34.53 -80.42 -37.1 0 44.83 94.36 1.71 3.65c1,1.86 1.72,3.25 2.15,4.18 0.42,0.93 0.93,2.18 1.5,3.76 0.57,1.57 1,3 1.28,4.28 0.29,1.29 0.43,2.58 0.43,3.87 0,3.71 -1.36,6.82 -4.07,9.32 -2.72,2.51 -6.51,3.76 -11.37,3.76 -5.29,0 -10.65,-1.15 -16.08,-3.43l0 28.31zm354.3 -58.34l-33.24 0c-2.86,22.88 -14.51,34.32 -34.96,34.32 -12.3,0 -22.09,-4.69 -29.38,-14.05 -7.29,-9.37 -10.94,-21.91 -10.94,-37.64 0,-9.01 1.29,-17.3 3.86,-24.88 2.57,-7.58 7.04,-13.98 13.4,-19.19 6.37,-5.22 14.2,-7.83 23.49,-7.83 9.01,0 16.48,2.32 22.41,6.97 5.93,4.64 9.76,11.19 11.48,19.62l32.81 0c-1.29,-15.87 -8.08,-28.95 -20.38,-39.25 -12.29,-10.29 -27.52,-15.44 -45.68,-15.44 -22.73,0 -40.93,7.58 -54.58,22.74 -13.65,15.15 -20.48,34.17 -20.48,57.04 0,24.17 6.75,43.58 20.27,58.23 13.51,14.66 31.34,21.99 53.51,21.99 20.44,0 36.53,-5.65 48.25,-16.95 11.73,-11.29 18.45,-26.52 20.16,-45.68zm244.71 0l-33.24 0c-2.86,22.88 -14.51,34.32 -34.96,34.32 -12.3,0 -22.09,-4.69 -29.38,-14.05 -7.29,-9.37 -10.94,-21.91 -10.94,-37.64 0,-9.01 1.29,-17.3 3.86,-24.88 2.57,-7.58 7.04,-13.98 13.4,-19.19 6.37,-5.22 14.2,-7.83 23.49,-7.83 9.01,0 16.48,2.32 22.41,6.97 5.93,4.64 9.76,11.19 11.48,19.62l32.81 0c-1.29,-15.87 -8.08,-28.95 -20.38,-39.25 -12.29,-10.29 -27.52,-15.44 -45.68,-15.44 -22.73,0 -40.93,7.58 -54.58,22.74 -13.65,15.15 -20.48,34.17 -20.48,57.04 0,24.17 6.75,43.58 20.27,58.23 13.51,14.66 31.34,21.99 53.51,21.99 20.44,0 36.53,-5.65 48.25,-16.95 11.73,-11.29 18.45,-26.52 20.16,-45.68zm217.9 -93.72l-125.46 0 0 28.52 45.89 0 0 124.18 33.68 0 0 -124.18 45.89 0 0 -28.52zm103.16 0l0 152.7 76.36 0c15.01,0 27.38,-3.97 37.1,-11.9 9.72,-7.94 14.58,-19.13 14.58,-33.57 0,-19.59 -9.29,-32.03 -27.88,-37.32 6.44,-2.86 11.51,-7.04 15.23,-12.54 3.72,-5.51 5.58,-11.83 5.58,-18.98 0,-12.87 -4.54,-22.49 -13.62,-28.85 -9.08,-6.36 -20.77,-9.54 -35.07,-9.54l-72.28 0zm32.6 25.95l30.46 0c7.72,0 13.87,1.25 18.44,3.75 4.58,2.5 6.87,7.26 6.87,14.26 0,11.87 -8.44,17.8 -25.31,17.8l-30.46 0 0 -35.81zm0 58.55l31.96 0c9.29,0 16.62,1.39 21.98,4.18 5.36,2.79 8.05,8.33 8.05,16.62 0,8.15 -2.54,13.66 -7.62,16.52 -5.07,2.86 -11.97,4.29 -20.69,4.29l-33.68 0 0 -41.61zm318.92 -84.5l-114.53 0 0 152.7 116.03 0 0 -28.1 -82.79 0 0 -37.53 74.64 0 0 -26.38 -74.64 0 0 -33.24 81.29 0 0 -27.45zm239.56 0l-33.45 0 0 57.48 -62.41 0 0 -57.48 -33.46 0 0 152.7 33.46 0 0 -65.84 62.41 0 0 65.84 33.45 0 0 -152.7zm244.71 0l-33.45 0 0 57.48 -62.41 0 0 -57.48 -33.46 0 0 152.7 33.46 0 0 -65.84 62.41 0 0 65.84 33.45 0 0 -152.7zm230.77 103.59c0,-16.02 -5,-28.13 -15.01,-36.36 -10.01,-8.22 -23.09,-12.33 -39.25,-12.33l-27.88 0 0 -54.9 -33.24 0 0 152.7 59.41 0c17.15,0 30.77,-4.11 40.85,-12.33 10.08,-8.22 15.12,-20.48 15.12,-36.78zm-32.6 -0.43c0,14.72 -8.65,22.09 -25.95,22.09l-23.59 0 0 -43.97 23.38 0c17.44,0 26.16,7.29 26.16,21.88zm48.9 -103.16l0 152.7 33.46 0 0 -152.7 -33.46 0zm277.95 0l-37.74 0 -57.48 105.73 -0.64 0 0 -105.73 -33.46 0 0 152.7 37.75 0 57.47 -105.95 0.65 0 0 105.95 33.45 0 0 -152.7zm-41.6 -41.18c-1.86,9.44 -9.51,14.15 -22.95,14.15 -13.44,0 -21.09,-4.71 -22.95,-14.15l-12.01 0c0,20.59 11.65,30.88 34.96,30.88 23.3,0 34.96,-10.29 34.96,-30.88l-12.01 0zm431.71 41.18l-37.74 0 -57.48 105.73 -0.64 0 0 -105.73 -33.46 0 0 152.7 37.75 0 57.47 -105.95 0.65 0 0 105.95 33.45 0 0 -152.7zm244.71 0l-33.45 0 0 57.48 -62.41 0 0 -57.48 -33.46 0 0 152.7 33.46 0 0 -65.84 62.41 0 0 65.84 33.45 0 0 -152.7zm228.84 0l-125.46 0 0 28.52 45.89 0 0 124.18 33.68 0 0 -124.18 45.89 0 0 -28.52zm217.91 0l-114.53 0 0 152.7 116.03 0 0 -28.1 -82.79 0 0 -37.53 74.64 0 0 -26.38 -74.64 0 0 -33.24 81.29 0 0 -27.45zm236.12 0l-106.37 0 -2.58 92.86c-0.43,14.3 -2.07,23.84 -4.93,28.63 -2.86,4.79 -6.94,7.19 -12.23,7.19 -4.43,0 -8.36,-0.86 -11.79,-2.57l0 27.02c5.15,1.71 11.44,2.57 18.87,2.57 26.88,0 41.04,-20.8 42.47,-62.41l2.14 -64.77 40.96 0 0 124.18 33.46 0 0 -152.7zm240.64 0l-106.37 0 -2.58 92.86c-0.43,14.3 -2.07,23.84 -4.93,28.63 -2.86,4.79 -6.94,7.19 -12.23,7.19 -4.43,0 -8.36,-0.86 -11.79,-2.57l0 27.02c5.15,1.71 11.44,2.57 18.87,2.57 26.88,0 41.04,-20.8 42.47,-62.41l2.14 -64.77 40.96 0 0 124.18 33.46 0 0 -152.7zm229.28 0l-114.53 0 0 152.7 116.03 0 0 -28.1 -82.79 0 0 -37.53 74.64 0 0 -26.38 -74.64 0 0 -33.24 81.29 0 0 -27.45zm246 0l-42.25 0 -60.05 63.48 0 -63.48 -33.03 0 0 152.7 33.03 0 0 -49.33 19.51 -19.3 46.33 68.63 42.03 0 -65.41 -92.44 59.84 -60.26zm218.33 0l-125.46 0 0 28.52 45.89 0 0 124.18 33.68 0 0 -124.18 45.89 0 0 -28.52z"/>
 </g>
</svg>
